<?xml version="1.0" encoding="UTF-8"?>
<svg xmlns="http://www.w3.org/2000/svg" width="201.377" height="196.506" viewBox="0 0 201.377 196.506"><path d="M-790.8,2343.489a1.566,1.566,0,0,1-1.549-1.584,1.533,1.533,0,0,1,1.585-1.55c4.058.047,8.087-.016,12.508-.2h.067a1.568,1.568,0,0,1,1.566,1.5,1.567,1.567,0,0,1-1.5,1.633c-3.542.147-6.845.22-10.1.22Q-789.511,2343.506-790.8,2343.489Zm-12.7-.607c-4.315-.37-8.563-.922-12.622-1.645a1.566,1.566,0,0,1-1.268-1.819,1.591,1.591,0,0,1,1.819-1.267c3.964.706,8.118,1.246,12.343,1.608a1.567,1.567,0,0,1,1.427,1.7,1.566,1.566,0,0,1-1.559,1.431A1.188,1.188,0,0,1-803.5,2342.882Zm-25.056-4.59A90.607,90.607,0,0,1-840.5,2333.7a1.568,1.568,0,0,1-.753-2.084,1.566,1.566,0,0,1,2.085-.752,88.163,88.163,0,0,0,11.534,4.434,1.564,1.564,0,0,1,1.039,1.957,1.568,1.568,0,0,1-1.5,1.11A1.493,1.493,0,0,1-828.556,2338.292Zm-23.108-10.883a83.049,83.049,0,0,1-10.085-7.922,1.566,1.566,0,0,1-.092-2.214,1.569,1.569,0,0,1,2.215-.092,79.967,79.967,0,0,0,9.7,7.619,1.57,1.57,0,0,1,.434,2.175,1.566,1.566,0,0,1-1.306.7A1.558,1.558,0,0,1-851.665,2327.409Zm-18.832-17.3a83.607,83.607,0,0,1-7.194-10.621,1.567,1.567,0,0,1,.587-2.138,1.577,1.577,0,0,1,2.138.587,80.3,80.3,0,0,0,6.924,10.218,1.572,1.572,0,0,1-.25,2.2,1.564,1.564,0,0,1-.977.338A1.573,1.573,0,0,1-870.5,2310.109Zm-12.654-22.229a76.9,76.9,0,0,1-3.523-12.353,1.567,1.567,0,0,1,1.237-1.84,1.557,1.557,0,0,1,1.841,1.237,73.779,73.779,0,0,0,3.379,11.848,1.568,1.568,0,0,1-.913,2.021,1.566,1.566,0,0,1-.554.1A1.571,1.571,0,0,1-883.15,2287.88Zm-5.095-25.046c-.163-2.561-.244-5.258-.244-8.011v-.635q.008-2.042.073-4.095a1.566,1.566,0,0,1,1.567-1.515h.051a1.567,1.567,0,0,1,1.515,1.617q-.065,2-.074,4v.63c0,2.689.082,5.317.24,7.812a1.565,1.565,0,0,1-1.464,1.664c-.033,0-.067,0-.1,0A1.569,1.569,0,0,1-888.245,2262.834Zm7.677-23.474a1.564,1.564,0,0,1-1.526-1.607,1.566,1.566,0,0,1,1.567-1.526h.041q6.07.153,12.521.032a1.484,1.484,0,0,1,1.6,1.536,1.563,1.563,0,0,1-1.536,1.6q-2.835.054-5.6.054Q-877.094,2239.447-880.568,2239.36Zm23.655-1.918a1.569,1.569,0,0,1,1.479-1.652c4.053-.229,8.263-.533,12.513-.908a1.571,1.571,0,0,1,1.7,1.424,1.568,1.568,0,0,1-1.424,1.7c-4.284.378-8.527.688-12.616.914-.028,0-.059,0-.089,0A1.567,1.567,0,0,1-856.913,2237.442Zm-36.313,1.278c-4.363-.34-8.609-.8-12.62-1.378a1.566,1.566,0,0,1-1.328-1.773,1.591,1.591,0,0,1,1.773-1.329c3.944.563,8.122,1.02,12.42,1.352a1.57,1.57,0,0,1,1.441,1.686,1.567,1.567,0,0,1-1.562,1.445C-893.143,2238.722-893.184,2238.722-893.227,2238.72Zm61.412-3.387a1.564,1.564,0,0,1,1.376-1.736q6.106-.716,12.45-1.618a1.556,1.556,0,0,1,1.773,1.329,1.566,1.566,0,0,1-1.328,1.773q-6.387.911-12.532,1.627a1.354,1.354,0,0,1-.184.011A1.566,1.566,0,0,1-831.814,2235.334Zm-86.546-.26c-3.03-.68-5.985-1.445-8.778-2.277q-1.783-.533-3.508-1.105a1.566,1.566,0,0,1-1-1.98,1.56,1.56,0,0,1,1.979-1q1.681.555,3.417,1.073c2.727.813,5.61,1.56,8.569,2.224a1.567,1.567,0,0,1,1.189,1.871,1.572,1.572,0,0,1-1.528,1.228A1.616,1.616,0,0,1-918.36,2235.073Zm-24.147-8.171a76.3,76.3,0,0,1-11.065-6.521,1.568,1.568,0,0,1-.365-2.186,1.563,1.563,0,0,1,2.187-.365,73.339,73.339,0,0,0,10.61,6.25,1.568,1.568,0,0,1,.727,2.094,1.566,1.566,0,0,1-1.41.885A1.568,1.568,0,0,1-942.507,2226.9Zm53.076-2.81v-.555c0-3.953-.157-7.968-.472-11.937a1.571,1.571,0,0,1,1.442-1.686,1.582,1.582,0,0,1,1.686,1.441c.317,4.049.477,8.149.477,12.182v.555a1.567,1.567,0,0,1-1.566,1.568A1.568,1.568,0,0,1-889.431,2224.093Zm-73.814-12.235a54.486,54.486,0,0,1-7.534-10.51,1.569,1.569,0,0,1,.619-2.129,1.578,1.578,0,0,1,2.13.62,51.337,51.337,0,0,0,7.1,9.906,1.566,1.566,0,0,1-.1,2.215,1.565,1.565,0,0,1-1.057.409A1.563,1.563,0,0,1-963.246,2211.858Zm71.82-12.634a106.884,106.884,0,0,0-2.768-12.113,1.565,1.565,0,0,1,1.061-1.945,1.554,1.554,0,0,1,1.944,1.062,110.13,110.13,0,0,1,2.855,12.465,1.573,1.573,0,0,1-1.281,1.813,1.693,1.693,0,0,1-.267.02A1.568,1.568,0,0,1-891.426,2199.224Zm-84.191-9.863q-.29-1.056-.546-2.129a30.4,30.4,0,0,1-.837-6.948,26.755,26.755,0,0,1,.3-4.021,1.568,1.568,0,0,1,1.783-1.314,1.563,1.563,0,0,1,1.314,1.783,23.716,23.716,0,0,0-.265,3.552,27.234,27.234,0,0,0,.754,6.225c.161.679.332,1.353.517,2.015a1.566,1.566,0,0,1-1.093,1.93,1.609,1.609,0,0,1-.419.058A1.565,1.565,0,0,1-975.617,2189.361Zm77.055-13.8a53.09,53.09,0,0,0-6.432-10.373,1.569,1.569,0,0,1,.24-2.2,1.569,1.569,0,0,1,2.205.239,56.564,56.564,0,0,1,6.814,10.98,1.568,1.568,0,0,1-.735,2.093,1.56,1.56,0,0,1-.678.156A1.568,1.568,0,0,1-898.562,2175.564Zm-72.6-9.254a1.567,1.567,0,0,1-.3-2.2,35.515,35.515,0,0,1,9.815-8.672,1.572,1.572,0,0,1,2.156.518,1.571,1.571,0,0,1-.518,2.156,32.375,32.375,0,0,0-8.958,7.9,1.562,1.562,0,0,1-1.247.617A1.55,1.55,0,0,1-971.165,2166.31Zm57.306-9.256a35.425,35.425,0,0,0-10.986-4.756,1.57,1.57,0,0,1-1.148-1.9,1.575,1.575,0,0,1,1.9-1.148,38.609,38.609,0,0,1,11.955,5.178,1.567,1.567,0,0,1,.452,2.172,1.563,1.563,0,0,1-1.314.706A1.562,1.562,0,0,1-913.859,2157.054Zm-36.96-4.865a1.568,1.568,0,0,1,1.059-1.947,59.135,59.135,0,0,1,12.322-2.228l.473-.014a1.669,1.669,0,0,1,1.6,1.535,1.565,1.565,0,0,1-1.536,1.6l-.34.012a55.778,55.778,0,0,0-11.626,2.1,1.6,1.6,0,0,1-.445.066A1.569,1.569,0,0,1-950.819,2152.189Z" transform="translate(977.5 -2147.5)" fill="#fff" stroke="rgba(0,0,0,0)" stroke-miterlimit="10" stroke-width="1" opacity="0.133"/></svg>